<svg xmlns="http://www.w3.org/2000/svg" width="137" height="38" viewBox="0 0 137 38">
  <defs>
    <style>
      .cls-1 {
        fill: #030504;
      }

      .cls-2 {
        fill: #d6001e;
      }
    </style>
  </defs>
  <g id="Macy_s_Logo_Black_Red" data-name="Macy&apos;s Logo Black + Red" transform="translate(-33.51 -6.129)">
    <path id="Path_78" data-name="Path 78" class="cls-1" d="M168.536,27.554a9.954,9.954,0,0,0-3.5-1.432l-.136-.035a6.617,6.617,0,0,1-2.5-1.085,2.3,2.3,0,0,1-.776-1.795,2.766,2.766,0,0,1,.158-1.072,2.5,2.5,0,0,1,.548-.876,2.782,2.782,0,0,1,1.009-.659,3.82,3.82,0,0,1,1.388-.241,3.325,3.325,0,0,1,1.23.191,2.538,2.538,0,0,1,.916.557,2.422,2.422,0,0,1,.559.862,3.49,3.49,0,0,1,.219,1.218l.014.8h2.361l-.011-.828a5.034,5.034,0,0,0-1.5-3.655,5.484,5.484,0,0,0-3.806-1.416,5.825,5.825,0,0,0-3.7,1.234,4.9,4.9,0,0,0-1.745,3.943,4.37,4.37,0,0,0,1.662,3.564,10.491,10.491,0,0,0,3.6,1.547,5.649,5.649,0,0,1,2.82,1.249,2.994,2.994,0,0,1,.8,2.183l0,.116a3.449,3.449,0,0,1-.242,1.293A3.169,3.169,0,0,1,166.11,35a3.818,3.818,0,0,1-1.409.258,3.756,3.756,0,0,1-2.671-.965A3.564,3.564,0,0,1,161,31.719l-.014-.8-2.321.013-.042,1.032A5.389,5.389,0,0,0,159,33.944a5.31,5.31,0,0,0,1.089,1.691,6.058,6.058,0,0,0,2.078,1.4,6.774,6.774,0,0,0,2.538.492,6.121,6.121,0,0,0,2.352-.461,5.693,5.693,0,0,0,1.937-1.327,5.447,5.447,0,0,0,1.511-4.115,5.075,5.075,0,0,0-1.965-4.074"/>
    <path id="Path_79" data-name="Path 79" class="cls-1" d="M158.413,9h-3.077l2.493,1.78-.933,2.868,2.461-1.772,2.477,1.778-.944-2.876L163.375,9H160.3l-.941-2.87Z"/>
    <path id="Path_80" data-name="Path 80" class="cls-1" d="M149.179,33.38,143,18.09h-2.563l.662,1.654c.054.136,1.76,4.388,3.454,8.6l3.264,8.119-3.407,7.663h2.631L157.7,19.76l.684-1.671h-2.643Z"/>
    <path id="Path_81" data-name="Path 81" class="cls-1" d="M125.764,22.478a8.48,8.48,0,0,1,2.519-1.619,8.11,8.11,0,0,1,2.961-.5,7.658,7.658,0,0,1,3.9,1.091,6.812,6.812,0,0,1,2.906,3.523l.2.539h2.542l-.387-1.084a9.212,9.212,0,0,0-4.062-4.927,10.479,10.479,0,0,0-5.219-1.41,9.907,9.907,0,0,0-7.037,2.8,9.67,9.67,0,0,0-2.832,6.955,10.062,10.062,0,0,0,15.615,8.013,9.228,9.228,0,0,0,3.5-4.494l.4-1.091H138.2l-.189.551a6.492,6.492,0,0,1-2.32,2.988,7.967,7.967,0,0,1-7.447.92,7.358,7.358,0,0,1-2.4-1.528,7.068,7.068,0,0,1-1.655-2.414,7.728,7.728,0,0,1-.577-2.978,8.056,8.056,0,0,1,.6-3.028,6.263,6.263,0,0,1,1.552-2.3"/>
    <path id="Path_82" data-name="Path 82" class="cls-1" d="M116.55,18.089v3.19a9.149,9.149,0,0,0-1.761-1.517,10.165,10.165,0,0,0-5.645-1.673,9.544,9.544,0,0,0-7.336,3.105,9.91,9.91,0,0,0,0,13.228,9.547,9.547,0,0,0,7.338,3.107,10,10,0,0,0,5.2-1.359,9.08,9.08,0,0,0,2.2-1.851v3.208h2.364V18.089Zm.009,10.965a6.605,6.605,0,0,1-.362,1.338,7.3,7.3,0,0,1-2.672,3.564,7.893,7.893,0,0,1-9.93-1.009,7.765,7.765,0,0,1-1.956-5.137,7.419,7.419,0,0,1,2.144-5.326,7.528,7.528,0,0,1,5.361-2.125,7.764,7.764,0,0,1,4.261,1.239,7.045,7.045,0,0,1,2.714,3.317,6.539,6.539,0,0,1,.394,1.284,7.439,7.439,0,0,1,.135,1.446,7.006,7.006,0,0,1-.089,1.41"/>
    <path id="Path_83" data-name="Path 83" class="cls-1" d="M94.731,20.015a6.319,6.319,0,0,0-2.323-1.451,8.746,8.746,0,0,0-6.023.139,7.041,7.041,0,0,0-2.5,1.723,6.776,6.776,0,0,0-.717.921,4.954,4.954,0,0,0-.619-.893,6.365,6.365,0,0,0-2.465-1.767,8.4,8.4,0,0,0-3.2-.6,7.463,7.463,0,0,0-3.048.65,6.824,6.824,0,0,0-2.064,1.44v-2.09H69.407V37.526h2.364V26.611A8.949,8.949,0,0,1,72.13,23.9a5.245,5.245,0,0,1,1.1-1.946A4.076,4.076,0,0,1,74.8,20.766a4.546,4.546,0,0,1,2.058-.408,6.4,6.4,0,0,1,2.407.5,4.261,4.261,0,0,1,1.626,1.256,4.647,4.647,0,0,1,.806,1.54,8.96,8.96,0,0,1,.3,2.608l-.007,11.267h2.363V26.772a12.337,12.337,0,0,1,.222-2.83,4.816,4.816,0,0,1,.973-1.888,4.165,4.165,0,0,1,1.823-1.3,6.368,6.368,0,0,1,4.188-.069,3.814,3.814,0,0,1,1.461.925,4.727,4.727,0,0,1,1.148,1.982,10.788,10.788,0,0,1,.41,3.182V37.526h2.361V26.772a13.094,13.094,0,0,0-.531-3.925,6.689,6.689,0,0,0-1.68-2.832"/>
    <path id="Path_84" data-name="Path 84" class="cls-2" d="M50.294,6.129,46.351,18.091H33.51l10.4,7.435-3.94,11.966,10.305-7.4,10.367,7.438L56.684,25.506,67.04,18.091H54.24Z"/>
  </g>
</svg>
