<svg xmlns="http://www.w3.org/2000/svg" width="280" height="36" viewBox="0 0 280 36">
  <defs>
    <style>
      .cls-1 {
        fill: #fff;
      }

      .cls-2 {
        isolation: isolate;
      }
    </style>
  </defs>
  <g id="logo_1" transform="translate(-20.716 -199.782)">
    <g id="Group_5134" data-name="Group 5134">
      <path id="Path_24079" data-name="Path 24079" class="cls-1" d="M39.475,199.782,35.067,213.5H20.716l11.626,8.524-4.4,13.722,11.519-8.489,11.585,8.528L46.617,222l11.575-8.5H43.885Z"/>
    </g>
    <g id="Group_12" data-name="Group 12" class="cls-2">
      <path id="Path_210" data-name="Path 210" class="cls-1" d="M61.968,213.774h4.575v21.072H61.968Z"/>
      <path id="Path_211" data-name="Path 211" class="cls-1" d="M84.434,220.857a4.51,4.51,0,0,0-4.545-3.689c-4.108,0-5.653,3.542-5.653,7.231,0,3.512,1.544,7.053,5.653,7.053,2.8,0,4.371-1.947,4.72-4.721h4.429c-.466,5.253-4.05,8.617-9.149,8.617-6.44,0-10.227-4.869-10.227-10.949,0-6.257,3.788-11.126,10.227-11.126,4.575,0,8.421,2.715,8.974,7.584Z"/>
      <path id="Path_212" data-name="Path 212" class="cls-1" d="M101.482,213.272c6.439,0,10.227,4.869,10.227,11.126,0,6.08-3.788,10.949-10.227,10.949S91.255,230.478,91.255,224.4C91.255,218.142,95.043,213.272,101.482,213.272Zm0,18.179c4.108,0,5.653-3.541,5.653-7.053,0-3.689-1.544-7.231-5.653-7.231s-5.653,3.542-5.653,7.231C95.829,227.911,97.374,231.452,101.482,231.452Z"/>
      <path id="Path_213" data-name="Path 213" class="cls-1" d="M114.83,213.774h4.545l8.683,14.137h.058V213.774H132.4v21.072h-4.575l-8.654-14.107h-.058v14.107H114.83Z"/>
      <path id="Path_214" data-name="Path 214" class="cls-1" d="M139.541,227.852c0,2.8,2.156,3.9,4.6,3.9,1.6,0,4.05-.472,4.05-2.627,0-2.272-3.118-2.656-6.177-3.482-3.088-.826-6.206-2.036-6.206-5.991,0-4.309,4.021-6.375,7.78-6.375,4.341,0,8.333,1.919,8.333,6.788H147.5c-.146-2.538-1.923-3.188-4.108-3.188-1.457,0-3.147.62-3.147,2.391,0,1.623.99,1.83,6.206,3.187,1.515.384,6.177,1.358,6.177,6.139,0,3.865-3,6.758-8.654,6.758-4.6,0-8.916-2.3-8.858-7.5Z"/>
      <path id="Path_215" data-name="Path 215" class="cls-1" d="M172.761,213.272c6.439,0,10.227,4.869,10.227,11.126,0,6.08-3.788,10.949-10.227,10.949s-10.227-4.869-10.227-10.949C162.533,218.142,166.321,213.272,172.761,213.272Zm0,18.179c4.108,0,5.652-3.541,5.652-7.053,0-3.689-1.544-7.231-5.652-7.231s-5.653,3.542-5.653,7.231C167.108,227.911,168.652,231.452,172.761,231.452Z"/>
      <path id="Path_216" data-name="Path 216" class="cls-1" d="M186.108,213.774h14.627v3.9H190.683v4.869h8.712v3.6h-8.712v8.706h-4.575Z"/>
      <path id="Path_217" data-name="Path 217" class="cls-1" d="M214.607,227.852c0,2.8,2.156,3.9,4.6,3.9,1.6,0,4.051-.472,4.051-2.627,0-2.272-3.118-2.656-6.177-3.482-3.088-.826-6.206-2.036-6.206-5.991,0-4.309,4.021-6.375,7.78-6.375,4.341,0,8.333,1.919,8.333,6.788h-4.429c-.145-2.538-1.923-3.188-4.108-3.188-1.458,0-3.147.62-3.147,2.391,0,1.623.991,1.83,6.206,3.187,1.515.384,6.177,1.358,6.177,6.139,0,3.865-3,6.758-8.654,6.758-4.6,0-8.916-2.3-8.858-7.5Z"/>
      <path id="Path_218" data-name="Path 218" class="cls-1" d="M235,217.67h-6.236v-3.9h17.046v3.9h-6.236v17.176H235Z"/>
      <path id="Path_219" data-name="Path 219" class="cls-1" d="M253.6,226.642l-7.663-12.868h5.157l4.866,8.323,4.836-8.323h5.1l-7.722,12.986v8.086H253.6Z"/>
      <path id="Path_220" data-name="Path 220" class="cls-1" d="M267.643,213.774h4.575V230.95h10.139v3.9H267.643Z"/>
      <path id="Path_221" data-name="Path 221" class="cls-1" d="M284.923,213.774h15.56v3.9H289.5v4.516H299.58v3.6H289.5v5.165h11.218v3.9H284.923Z"/>
    </g>
  </g>
</svg>
