<svg xmlns="http://www.w3.org/2000/svg" width="72" height="20" viewBox="0 0 72 20">
  <defs>
    <style>
      .cls-1 {
        fill: #030504;
      }

      .cls-2 {
        fill: #d6001e;
      }
    </style>
  </defs>
  <g id="Macy_s_Logo_Black_Red" data-name="Macy&apos;s Logo Black + Red" transform="translate(-17.611 -3.226)">
    <path id="Path_50" data-name="Path 50" class="cls-1" d="M88.574,14.5a5.227,5.227,0,0,0-1.842-.754l-.071-.018a3.475,3.475,0,0,1-1.314-.571,1.212,1.212,0,0,1-.408-.944,1.458,1.458,0,0,1,.083-.564,1.313,1.313,0,0,1,.288-.461,1.462,1.462,0,0,1,.53-.347,2,2,0,0,1,.729-.127,1.745,1.745,0,0,1,.646.1,1.333,1.333,0,0,1,.481.293,1.275,1.275,0,0,1,.294.454,1.839,1.839,0,0,1,.115.641l.007.422h1.241l-.006-.436a2.652,2.652,0,0,0-.79-1.924,2.88,2.88,0,0,0-2-.745,3.058,3.058,0,0,0-1.942.65,2.58,2.58,0,0,0-.917,2.075,2.3,2.3,0,0,0,.874,1.876,5.509,5.509,0,0,0,1.89.814,2.967,2.967,0,0,1,1.482.657,1.577,1.577,0,0,1,.422,1.149V16.8a1.818,1.818,0,0,1-.127.681,1.667,1.667,0,0,1-.941.94,2,2,0,0,1-.741.136,1.972,1.972,0,0,1-1.4-.508,1.877,1.877,0,0,1-.54-1.357l-.007-.423-1.22.007-.022.543a2.84,2.84,0,0,0,.195,1.044,2.8,2.8,0,0,0,.572.89,3.184,3.184,0,0,0,1.092.738,3.555,3.555,0,0,0,1.334.259,3.213,3.213,0,0,0,1.236-.243,2.992,2.992,0,0,0,1.018-.7,2.869,2.869,0,0,0,.794-2.166A2.673,2.673,0,0,0,88.574,14.5"/>
    <path id="Path_51" data-name="Path 51" class="cls-1" d="M83.253,4.736H81.636l1.31.937-.49,1.509,1.293-.932,1.3.936-.5-1.514,1.307-.936H84.247l-.494-1.511Z"/>
    <path id="Path_52" data-name="Path 52" class="cls-1" d="M78.4,17.568,75.154,9.521H73.807l.348.87c.028.071.925,2.309,1.815,4.528l1.715,4.273L75.9,23.226h1.383l5.6-12.825.359-.879H81.847Z"/>
    <path id="Path_53" data-name="Path 53" class="cls-1" d="M66.1,11.831a4.456,4.456,0,0,1,1.324-.852,4.257,4.257,0,0,1,1.556-.264,4.02,4.02,0,0,1,2.049.574,3.584,3.584,0,0,1,1.527,1.854l.1.284H73.99l-.2-.57a4.847,4.847,0,0,0-2.135-2.593,5.5,5.5,0,0,0-2.743-.742,5.2,5.2,0,0,0-3.7,1.472,5.093,5.093,0,0,0-1.488,3.661,5.286,5.286,0,0,0,8.206,4.218,4.856,4.856,0,0,0,1.839-2.365l.21-.574H72.632l-.1.29a3.416,3.416,0,0,1-1.219,1.572,4.182,4.182,0,0,1-3.914.484,3.866,3.866,0,0,1-1.262-.8,3.72,3.72,0,0,1-.87-1.271,4.072,4.072,0,0,1-.3-1.567,4.245,4.245,0,0,1,.315-1.594,3.3,3.3,0,0,1,.816-1.212"/>
    <path id="Path_54" data-name="Path 54" class="cls-1" d="M61.253,9.521V11.2a4.81,4.81,0,0,0-.925-.8,5.337,5.337,0,0,0-2.967-.88,5.013,5.013,0,0,0-3.855,1.634,5.221,5.221,0,0,0,0,6.962,5.014,5.014,0,0,0,3.857,1.635,5.247,5.247,0,0,0,2.734-.715,4.774,4.774,0,0,0,1.158-.974v1.688h1.242V9.521Zm0,5.771a3.48,3.48,0,0,1-.19.7,3.839,3.839,0,0,1-1.4,1.876,4.144,4.144,0,0,1-5.219-.531,4.09,4.09,0,0,1-1.028-2.7,3.908,3.908,0,0,1,1.127-2.8,3.953,3.953,0,0,1,2.818-1.118,4.076,4.076,0,0,1,2.239.652,3.707,3.707,0,0,1,1.426,1.746,3.446,3.446,0,0,1,.207.676,3.921,3.921,0,0,1,.071.761,3.693,3.693,0,0,1-.047.742"/>
    <path id="Path_55" data-name="Path 55" class="cls-1" d="M49.786,10.534a3.32,3.32,0,0,0-1.221-.764,4.59,4.59,0,0,0-3.165.073,3.7,3.7,0,0,0-1.313.907,3.566,3.566,0,0,0-.377.485,2.607,2.607,0,0,0-.325-.47,3.345,3.345,0,0,0-1.3-.93,4.41,4.41,0,0,0-1.684-.314,3.917,3.917,0,0,0-1.6.342,3.586,3.586,0,0,0-1.084.758v-1.1H36.477v10.23h1.242V14.006a4.717,4.717,0,0,1,.189-1.428,2.762,2.762,0,0,1,.579-1.024,2.142,2.142,0,0,1,.825-.623,2.386,2.386,0,0,1,1.082-.215,3.357,3.357,0,0,1,1.265.262,2.24,2.24,0,0,1,.854.661,2.447,2.447,0,0,1,.424.81A4.722,4.722,0,0,1,43.1,13.82l0,5.93h1.242V14.09A6.5,6.5,0,0,1,44.45,12.6a2.536,2.536,0,0,1,.511-.994,2.189,2.189,0,0,1,.958-.685,3.342,3.342,0,0,1,2.2-.037,2,2,0,0,1,.768.487,2.489,2.489,0,0,1,.6,1.043,5.686,5.686,0,0,1,.215,1.675v5.66h1.241V14.09a6.9,6.9,0,0,0-.279-2.066,3.522,3.522,0,0,0-.883-1.49"/>
    <path id="Path_56" data-name="Path 56" class="cls-2" d="M26.432,3.226l-2.072,6.3H17.611l5.467,3.913-2.071,6.3,5.416-3.9,5.448,3.915L29.79,13.424l5.443-3.9H28.506Z"/>
  </g>
</svg>
