<svg xmlns="http://www.w3.org/2000/svg" width="198.984" height="56.265" viewBox="0 0 198.984 56.265">
  <defs>
    <style>
      .cls-1 {
        fill: #030504;
      }

      .cls-2 {
        fill: #d6001e;
      }
    </style>
  </defs>
  <g id="Macy_s_Logo_Black_Red" data-name="Macy&apos;s Logo Black + Red" transform="matrix(1, 0, 0, 1, -48.672, -9.074)">
    <path id="Path_134" data-name="Path 134" class="cls-1" d="M244.788,40.8a14.3,14.3,0,0,0-5.091-2.121l-.2-.051a9.524,9.524,0,0,1-3.632-1.606,3.437,3.437,0,0,1-1.128-2.657,4.168,4.168,0,0,1,.229-1.587,3.705,3.705,0,0,1,.8-1.3,4.036,4.036,0,0,1,1.466-.976,5.454,5.454,0,0,1,2.016-.357,4.745,4.745,0,0,1,1.786.282,3.675,3.675,0,0,1,1.331.825,3.594,3.594,0,0,1,.812,1.276,5.257,5.257,0,0,1,.317,1.8l.02,1.186h3.429l-.015-1.225a7.528,7.528,0,0,0-2.183-5.412,7.879,7.879,0,0,0-5.528-2.1,8.356,8.356,0,0,0-5.368,1.828,7.315,7.315,0,0,0-2.534,5.838,6.519,6.519,0,0,0,2.415,5.277,15.089,15.089,0,0,0,5.222,2.291,8.136,8.136,0,0,1,4.1,1.85,4.482,4.482,0,0,1,1.167,3.233l0,.171a5.2,5.2,0,0,1-.352,1.915,4.762,4.762,0,0,1-1,1.567,4.665,4.665,0,0,1-1.6,1.076,5.452,5.452,0,0,1-2.047.382,5.4,5.4,0,0,1-3.879-1.429,5.331,5.331,0,0,1-1.492-3.817l-.02-1.189-3.371.019-.062,1.528a8.117,8.117,0,0,0,.539,2.938,7.882,7.882,0,0,0,1.582,2.5,8.793,8.793,0,0,0,3.018,2.077,9.675,9.675,0,0,0,3.686.728,8.743,8.743,0,0,0,3.416-.683,8.266,8.266,0,0,0,2.814-1.964,8.074,8.074,0,0,0,1.725-2.811,8.221,8.221,0,0,0,.47-3.281,7.567,7.567,0,0,0-2.853-6.032"/>
    <path id="Path_135" data-name="Path 135" class="cls-1" d="M230.085,13.324h-4.469l3.62,2.635-1.355,4.246,3.574-2.623,3.6,2.632-1.371-4.258,3.611-2.632h-4.461l-1.367-4.249Z"/>
    <path id="Path_136" data-name="Path 136" class="cls-1" d="M216.674,49.424,207.7,26.784h-3.723l.962,2.449c.079.2,2.556,6.5,5.017,12.738l4.74,12.021-4.948,11.346h3.822l15.47-36.081.993-2.474H226.2Z"/>
    <path id="Path_137" data-name="Path 137" class="cls-1" d="M182.665,33.282a12.289,12.289,0,0,1,3.659-2.4,11.579,11.579,0,0,1,4.3-.744,10.964,10.964,0,0,1,5.662,1.615,10.045,10.045,0,0,1,4.221,5.216l.284.8h3.692l-.562-1.6a13.584,13.584,0,0,0-5.9-7.294,15,15,0,0,0-7.58-2.088,14.244,14.244,0,0,0-10.221,4.142,14.462,14.462,0,0,0-4.113,10.3,14.739,14.739,0,0,0,3.711,9.831,14.971,14.971,0,0,0,18.969,2.034,13.629,13.629,0,0,0,5.083-6.653l.581-1.615H200.73l-.274.815a9.59,9.59,0,0,1-3.369,4.424,11.382,11.382,0,0,1-10.816,1.362,10.663,10.663,0,0,1-3.487-2.263,10.474,10.474,0,0,1-2.4-3.574,11.636,11.636,0,0,1-.838-4.409,12.13,12.13,0,0,1,.871-4.483,9.283,9.283,0,0,1,2.254-3.41"/>
    <path id="Path_138" data-name="Path 138" class="cls-1" d="M169.283,26.784v4.724a13.363,13.363,0,0,0-2.557-2.247,14.562,14.562,0,0,0-8.2-2.477,13.749,13.749,0,0,0-10.655,4.6,14.886,14.886,0,0,0,0,19.585,13.753,13.753,0,0,0,10.658,4.6,14.3,14.3,0,0,0,7.555-2.012,13.253,13.253,0,0,0,3.2-2.741v4.749h3.433V26.784Zm.012,16.235A9.93,9.93,0,0,1,168.77,45a10.784,10.784,0,0,1-3.88,5.277,11.3,11.3,0,0,1-14.423-1.494,11.625,11.625,0,0,1-2.842-7.607,11.1,11.1,0,0,1,3.114-7.886,10.824,10.824,0,0,1,7.787-3.146,11.12,11.12,0,0,1,6.189,1.835,10.391,10.391,0,0,1,3.941,4.911,9.823,9.823,0,0,1,.572,1.9,11.223,11.223,0,0,1,.2,2.142,10.572,10.572,0,0,1-.13,2.088"/>
    <path id="Path_139" data-name="Path 139" class="cls-1" d="M137.591,29.635a9.154,9.154,0,0,0-3.374-2.149,12.477,12.477,0,0,0-8.748.206,10.225,10.225,0,0,0-3.628,2.551,10.009,10.009,0,0,0-1.041,1.364,7.338,7.338,0,0,0-.9-1.322,9.252,9.252,0,0,0-3.58-2.617,12,12,0,0,0-4.655-.884,10.662,10.662,0,0,0-4.426.962,9.912,9.912,0,0,0-3,2.132V26.784H100.81V55.563h3.433V39.4a13.491,13.491,0,0,1,.522-4.018,7.807,7.807,0,0,1,1.6-2.882,5.934,5.934,0,0,1,2.279-1.753,6.5,6.5,0,0,1,2.99-.6,9.137,9.137,0,0,1,3.5.738,6.206,6.206,0,0,1,2.361,1.859,6.929,6.929,0,0,1,1.171,2.28,13.51,13.51,0,0,1,.439,3.861l-.009,16.683h3.431V39.64a18.613,18.613,0,0,1,.322-4.19,7.183,7.183,0,0,1,1.413-2.8,6.055,6.055,0,0,1,2.647-1.927,9.083,9.083,0,0,1,6.083-.1,5.527,5.527,0,0,1,2.122,1.37,7.03,7.03,0,0,1,1.667,2.935,16.264,16.264,0,0,1,.595,4.711V55.563H140.8V39.64a19.74,19.74,0,0,0-.771-5.812,9.944,9.944,0,0,0-2.44-4.193"/>
    <path id="Path_140" data-name="Path 140" class="cls-2" d="M73.048,9.074,67.322,26.786H48.672L63.781,37.8,58.057,55.512,73.025,44.55,88.083,55.564l-5.753-17.8,15.042-10.98H78.781Z"/>
  </g>
</svg>
