<svg xmlns="http://www.w3.org/2000/svg" width="153" height="20" viewBox="0 0 153 20">
  <defs>
    <style>
      .cls-1 {
        fill: #fff;
      }

      .cls-2 {
        isolation: isolate;
      }
    </style>
  </defs>
  <g id="logo_1" transform="translate(-11.32 -110.99)">
    <g id="Group_5134" data-name="Group 5134">
      <path id="Path_24079" data-name="Path 24079" class="cls-1" d="M21.57,110.99l-2.409,7.619H11.32l6.353,4.735-2.406,7.624,6.294-4.716,6.33,4.738-2.419-7.657L31.8,118.61H23.98Z"/>
    </g>
    <g id="Group_8" data-name="Group 8" class="cls-2">
      <path id="Path_134" data-name="Path 134" class="cls-1" d="M33.861,118.763h2.5V130.47h-2.5Z"/>
      <path id="Path_135" data-name="Path 135" class="cls-1" d="M46.137,122.7a2.475,2.475,0,0,0-2.484-2.049c-2.245,0-3.089,1.968-3.089,4.017,0,1.951.844,3.918,3.089,3.918,1.528,0,2.388-1.082,2.579-2.623h2.42a4.861,4.861,0,0,1-5,4.787c-3.519,0-5.589-2.705-5.589-6.083,0-3.476,2.07-6.181,5.589-6.181a4.652,4.652,0,0,1,4.9,4.214Z"/>
      <path id="Path_136" data-name="Path 136" class="cls-1" d="M55.453,118.485c3.518,0,5.588,2.705,5.588,6.181,0,3.378-2.07,6.083-5.588,6.083s-5.589-2.705-5.589-6.083C49.864,121.19,51.934,118.485,55.453,118.485Zm0,10.1c2.245,0,3.089-1.967,3.089-3.918,0-2.049-.844-4.017-3.089-4.017s-3.089,1.968-3.089,4.017C52.364,126.617,53.208,128.584,55.453,128.584Z"/>
      <path id="Path_137" data-name="Path 137" class="cls-1" d="M62.746,118.763H65.23l4.745,7.854h.032v-7.854h2.34V130.47h-2.5l-4.729-7.837h-.032v7.837h-2.34Z"/>
      <path id="Path_138" data-name="Path 138" class="cls-1" d="M76.249,126.584c0,1.557,1.178,2.164,2.516,2.164.876,0,2.213-.262,2.213-1.459,0-1.262-1.7-1.475-3.375-1.935-1.688-.459-3.391-1.131-3.391-3.328,0-2.394,2.2-3.542,4.251-3.542,2.372,0,4.554,1.066,4.554,3.771H80.6c-.08-1.41-1.051-1.771-2.245-1.771-.8,0-1.719.344-1.719,1.328,0,.9.541,1.017,3.391,1.771.828.213,3.375.755,3.375,3.411,0,2.147-1.64,3.754-4.729,3.754-2.516,0-4.872-1.279-4.84-4.164Z"/>
      <path id="Path_139" data-name="Path 139" class="cls-1" d="M94.4,118.485c3.518,0,5.589,2.705,5.589,6.181,0,3.378-2.07,6.083-5.589,6.083s-5.589-2.705-5.589-6.083C88.813,121.19,90.883,118.485,94.4,118.485Zm0,10.1c2.245,0,3.089-1.967,3.089-3.918,0-2.049-.844-4.017-3.089-4.017s-3.089,1.968-3.089,4.017C91.313,126.617,92.156,128.584,94.4,128.584Z"/>
      <path id="Path_140" data-name="Path 140" class="cls-1" d="M101.695,118.763h7.993v2.164h-5.493v2.705h4.76v2h-4.76v4.837h-2.5Z"/>
      <path id="Path_141" data-name="Path 141" class="cls-1" d="M117.267,126.584c0,1.557,1.178,2.164,2.516,2.164.876,0,2.213-.262,2.213-1.459,0-1.262-1.7-1.475-3.375-1.935-1.688-.459-3.391-1.131-3.391-3.328,0-2.394,2.2-3.542,4.251-3.542,2.372,0,4.554,1.066,4.554,3.771h-2.42c-.079-1.41-1.051-1.771-2.245-1.771-.8,0-1.72.344-1.72,1.328,0,.9.541,1.017,3.391,1.771.828.213,3.375.755,3.375,3.411,0,2.147-1.64,3.754-4.729,3.754-2.516,0-4.872-1.279-4.84-4.164Z"/>
      <path id="Path_142" data-name="Path 142" class="cls-1" d="M128.413,120.928h-3.407v-2.164h9.314v2.164h-3.407v9.542h-2.5Z"/>
      <path id="Path_143" data-name="Path 143" class="cls-1" d="M138.573,125.912l-4.187-7.149H137.2l2.659,4.624,2.643-4.624h2.787l-4.219,7.214v4.492h-2.5Z"/>
      <path id="Path_144" data-name="Path 144" class="cls-1" d="M146.248,118.763h2.5v9.542h5.54v2.164h-8.04Z"/>
      <path id="Path_145" data-name="Path 145" class="cls-1" d="M155.69,118.763h8.5v2.164h-6v2.509H163.7v2H158.19v2.869h6.13v2.164h-8.63Z"/>
    </g>
  </g>
</svg>
