<svg xmlns="http://www.w3.org/2000/svg" width="72" height="20.339" viewBox="0 0 72 20.339">
  <defs>
    <style>
      .cls-1 {
        fill: #fff;
      }

      .cls-2 {
        fill: #d70020;
      }
    </style>
  </defs>
  <g id="Macy_s_Logo_White" data-name="Macy&apos;s Logo White" transform="translate(-17.611 -3.28)">
    <path id="Path_50" data-name="Path 50" class="cls-1" d="M88.574,14.748a5.179,5.179,0,0,0-1.842-.767l-.071-.019a3.448,3.448,0,0,1-1.314-.581,1.242,1.242,0,0,1-.408-.96,1.505,1.505,0,0,1,.083-.574,1.339,1.339,0,0,1,.288-.469,1.46,1.46,0,0,1,.53-.353,1.975,1.975,0,0,1,.729-.129,1.719,1.719,0,0,1,.646.1,1.33,1.33,0,0,1,.481.3,1.3,1.3,0,0,1,.294.461,1.9,1.9,0,0,1,.115.652l.007.429h1.241l-.006-.443a2.72,2.72,0,0,0-.79-1.957,2.853,2.853,0,0,0-2-.758,3.025,3.025,0,0,0-1.942.661,2.643,2.643,0,0,0-.917,2.11,2.356,2.356,0,0,0,.874,1.907,5.462,5.462,0,0,0,1.89.828,2.945,2.945,0,0,1,1.482.669,1.619,1.619,0,0,1,.422,1.169v.062a1.876,1.876,0,0,1-.127.692,1.721,1.721,0,0,1-.362.566,1.688,1.688,0,0,1-.579.389,1.974,1.974,0,0,1-.741.138,1.953,1.953,0,0,1-1.4-.516,1.926,1.926,0,0,1-.54-1.38l-.007-.43-1.22.007-.022.552a2.932,2.932,0,0,0,.195,1.062,2.849,2.849,0,0,0,.572.905,3.182,3.182,0,0,0,1.092.751,3.5,3.5,0,0,0,1.334.263,3.166,3.166,0,0,0,1.236-.247,2.991,2.991,0,0,0,1.018-.71,2.918,2.918,0,0,0,.624-1.016,2.969,2.969,0,0,0,.17-1.186,2.734,2.734,0,0,0-1.032-2.18"/>
    <path id="Path_51" data-name="Path 51" class="cls-1" d="M83.253,4.816H81.636l1.31.953L82.456,7.3l1.293-.948,1.3.951-.5-1.539,1.307-.951H84.247L83.753,3.28Z"/>
    <path id="Path_52" data-name="Path 52" class="cls-1" d="M78.4,17.866,75.154,9.682H73.807l.348.885c.028.073.925,2.348,1.815,4.6l1.715,4.346-1.79,4.1h1.383l5.6-13.043.359-.894H81.847Z"/>
    <path id="Path_53" data-name="Path 53" class="cls-1" d="M66.1,12.031a4.447,4.447,0,0,1,1.324-.866,4.193,4.193,0,0,1,1.556-.269,3.97,3.97,0,0,1,2.049.584,3.632,3.632,0,0,1,1.527,1.885l.1.289H73.99l-.2-.58a4.911,4.911,0,0,0-2.135-2.637,5.431,5.431,0,0,0-2.743-.755,5.157,5.157,0,0,0-3.7,1.5A5.225,5.225,0,0,0,63.722,14.9a5.325,5.325,0,0,0,1.343,3.554,5.421,5.421,0,0,0,6.864.735,4.927,4.927,0,0,0,1.839-2.405l.21-.584H72.632l-.1.295a3.467,3.467,0,0,1-1.219,1.6,4.122,4.122,0,0,1-3.914.492,3.859,3.859,0,0,1-1.262-.818,3.786,3.786,0,0,1-.87-1.292,4.2,4.2,0,0,1-.3-1.594,4.381,4.381,0,0,1,.315-1.621,3.356,3.356,0,0,1,.816-1.233"/>
    <path id="Path_54" data-name="Path 54" class="cls-1" d="M61.253,9.682V11.39a4.834,4.834,0,0,0-.925-.812,5.273,5.273,0,0,0-2.967-.9,4.977,4.977,0,0,0-3.855,1.662,5.377,5.377,0,0,0,0,7.08,4.978,4.978,0,0,0,3.857,1.663,5.18,5.18,0,0,0,2.734-.727,4.794,4.794,0,0,0,1.158-.991v1.717h1.242V9.682Zm0,5.869a3.587,3.587,0,0,1-.19.716,3.9,3.9,0,0,1-1.4,1.908,4.091,4.091,0,0,1-5.219-.54,4.2,4.2,0,0,1-1.028-2.75,4.009,4.009,0,0,1,1.127-2.851A3.919,3.919,0,0,1,57.361,10.9a4.026,4.026,0,0,1,2.239.663,3.757,3.757,0,0,1,1.426,1.775,3.548,3.548,0,0,1,.207.687,4.053,4.053,0,0,1,.071.774,3.818,3.818,0,0,1-.047.755"/>
    <path id="Path_55" data-name="Path 55" class="cls-1" d="M49.786,10.713a3.313,3.313,0,0,0-1.221-.777,4.519,4.519,0,0,0-3.165.074,3.7,3.7,0,0,0-1.313.922,3.619,3.619,0,0,0-.377.493,2.652,2.652,0,0,0-.325-.478,3.347,3.347,0,0,0-1.3-.946,4.345,4.345,0,0,0-1.684-.319,3.861,3.861,0,0,0-1.6.348,3.586,3.586,0,0,0-1.084.771V9.682H36.477v10.4h1.242V14.243a4.873,4.873,0,0,1,.189-1.453,2.822,2.822,0,0,1,.579-1.042,2.147,2.147,0,0,1,.825-.634,2.352,2.352,0,0,1,1.082-.219,3.309,3.309,0,0,1,1.265.267,2.245,2.245,0,0,1,.854.672,2.5,2.5,0,0,1,.424.824,4.879,4.879,0,0,1,.159,1.4l0,6.031h1.242V14.329a6.722,6.722,0,0,1,.116-1.515,2.6,2.6,0,0,1,.511-1.011,2.191,2.191,0,0,1,.958-.7,3.29,3.29,0,0,1,2.2-.037,2,2,0,0,1,.768.5,2.541,2.541,0,0,1,.6,1.061,5.874,5.874,0,0,1,.215,1.7v5.756h1.241V14.329a7.129,7.129,0,0,0-.279-2.1,3.594,3.594,0,0,0-.883-1.516"/>
    <path id="Path_56" data-name="Path 56" class="cls-2" d="M26.432,3.28l-2.072,6.4H17.611l5.467,3.98-2.071,6.4L26.423,16.1l5.448,3.981L29.79,13.652l5.443-3.969H28.506Z"/>
  </g>
</svg>
