<svg xmlns="http://www.w3.org/2000/svg" width="143" height="18" viewBox="0 0 143 18">
  <defs>
    <style>
      .cls-1 {
        fill: #fff;
      }

      .cls-2 {
        isolation: isolate;
      }
    </style>
  </defs>
  <g id="logo_1" transform="matrix(1, 0, 0, 1, -10.58, -99.891)">
    <g id="Group_5134" data-name="Group 5134">
      <path id="Path_24079" data-name="Path 24079" class="cls-1" d="M20.16,99.891l-2.251,6.857H10.58l5.938,4.262-2.248,6.861,5.883-4.245,5.917,4.264L23.808,111l5.912-4.251H22.413Z"/>
    </g>
    <g id="Group_4" data-name="Group 4" class="cls-2">
      <path id="Path_58" data-name="Path 58" class="cls-1" d="M31.648,106.887h2.336v10.536H31.648Z"/>
      <path id="Path_59" data-name="Path 59" class="cls-1" d="M43.122,110.428a2.291,2.291,0,0,0-2.321-1.844c-2.1,0-2.887,1.771-2.887,3.615,0,1.756.789,3.527,2.887,3.527a2.384,2.384,0,0,0,2.411-2.361h2.262a4.472,4.472,0,0,1-4.673,4.309c-3.289,0-5.223-2.435-5.223-5.475,0-3.128,1.934-5.563,5.223-5.563a4.3,4.3,0,0,1,4.583,3.792Z"/>
      <path id="Path_60" data-name="Path 60" class="cls-1" d="M51.828,106.636c3.289,0,5.223,2.435,5.223,5.563,0,3.04-1.934,5.475-5.223,5.475s-5.223-2.435-5.223-5.475C46.605,109.071,48.54,106.636,51.828,106.636Zm0,9.09c2.1,0,2.887-1.77,2.887-3.527,0-1.844-.789-3.615-2.887-3.615s-2.887,1.771-2.887,3.615C48.941,113.955,49.73,115.726,51.828,115.726Z"/>
      <path id="Path_61" data-name="Path 61" class="cls-1" d="M58.645,106.887h2.321l4.434,7.068h.03v-7.068h2.187v10.536H65.282l-4.42-7.053h-.03v7.053H58.645Z"/>
      <path id="Path_62" data-name="Path 62" class="cls-1" d="M71.266,113.926c0,1.4,1.1,1.948,2.351,1.948.819,0,2.068-.236,2.068-1.313,0-1.136-1.592-1.328-3.155-1.741s-3.17-1.018-3.17-3c0-2.155,2.054-3.187,3.973-3.187,2.217,0,4.256.959,4.256,3.394H75.328c-.074-1.269-.982-1.594-2.1-1.594-.744,0-1.607.31-1.607,1.2,0,.811.506.915,3.169,1.594.774.192,3.155.679,3.155,3.07,0,1.933-1.533,3.379-4.42,3.379-2.351,0-4.554-1.151-4.524-3.748Z"/>
      <path id="Path_63" data-name="Path 63" class="cls-1" d="M88.231,106.636c3.289,0,5.223,2.435,5.223,5.563,0,3.04-1.935,5.475-5.223,5.475s-5.223-2.435-5.223-5.475C83.008,109.071,84.943,106.636,88.231,106.636Zm0,9.09c2.1,0,2.887-1.77,2.887-3.527,0-1.844-.789-3.615-2.887-3.615s-2.887,1.771-2.887,3.615C85.344,113.955,86.133,115.726,88.231,115.726Z"/>
      <path id="Path_64" data-name="Path 64" class="cls-1" d="M95.048,106.887h7.47v1.948H97.385v2.435h4.449v1.8H97.385v4.353H95.048Z"/>
      <path id="Path_65" data-name="Path 65" class="cls-1" d="M109.6,113.926c0,1.4,1.1,1.948,2.351,1.948.819,0,2.069-.236,2.069-1.313,0-1.136-1.592-1.328-3.155-1.741s-3.17-1.018-3.17-3c0-2.155,2.054-3.187,3.973-3.187,2.217,0,4.256.959,4.256,3.394h-2.262c-.074-1.269-.982-1.594-2.1-1.594-.744,0-1.607.31-1.607,1.2,0,.811.506.915,3.169,1.594.774.192,3.155.679,3.155,3.07,0,1.933-1.533,3.379-4.42,3.379-2.351,0-4.554-1.151-4.524-3.748Z"/>
      <path id="Path_66" data-name="Path 66" class="cls-1" d="M120.02,108.835h-3.185v-1.948h8.706v1.948h-3.185v8.588H120.02Z"/>
      <path id="Path_67" data-name="Path 67" class="cls-1" d="M129.516,113.321l-3.914-6.434h2.634l2.485,4.161,2.47-4.161h2.6l-3.944,6.493v4.043h-2.336Z"/>
      <path id="Path_68" data-name="Path 68" class="cls-1" d="M136.689,106.887h2.337v8.588H144.2v1.948h-7.515Z"/>
      <path id="Path_69" data-name="Path 69" class="cls-1" d="M145.514,106.887h7.947v1.948h-5.61v2.258H153v1.8h-5.149v2.582h5.729v1.948h-8.066Z"/>
    </g>
  </g>
</svg>
