<svg xmlns="http://www.w3.org/2000/svg" width="140" height="39.55" viewBox="0 0 140 39.55">
  <defs>
    <style>
      .cls-1 {
        fill: #030504;
      }

      .cls-2 {
        fill: #d6001e;
      }
    </style>
  </defs>
  <g id="Macy_s_Logo_Black_Red" data-name="Macy&apos;s Logo Black + Red" transform="translate(-34.244 -6.379)">
    <path id="Path_106" data-name="Path 106" class="cls-1" d="M172.226,28.678a10.069,10.069,0,0,0-3.582-1.491l-.139-.036a6.7,6.7,0,0,1-2.556-1.129,2.415,2.415,0,0,1-.793-1.868,2.927,2.927,0,0,1,.161-1.116,2.6,2.6,0,0,1,.56-.912,2.84,2.84,0,0,1,1.031-.686,3.84,3.84,0,0,1,1.418-.251,3.342,3.342,0,0,1,1.257.2,2.586,2.586,0,0,1,.936.58,2.526,2.526,0,0,1,.571.9,3.692,3.692,0,0,1,.223,1.268l.014.834h2.412l-.011-.861a5.289,5.289,0,0,0-1.536-3.8,5.547,5.547,0,0,0-3.889-1.474,5.882,5.882,0,0,0-3.776,1.285,5.14,5.14,0,0,0-1.783,4.1,4.581,4.581,0,0,0,1.7,3.709,10.621,10.621,0,0,0,3.674,1.61,5.726,5.726,0,0,1,2.882,1.3,3.149,3.149,0,0,1,.821,2.272l0,.12a3.648,3.648,0,0,1-.247,1.346,3.347,3.347,0,0,1-.7,1.1,3.282,3.282,0,0,1-1.126.756,3.839,3.839,0,0,1-1.44.269,3.8,3.8,0,0,1-2.729-1,3.745,3.745,0,0,1-1.05-2.683l-.014-.836-2.372.013-.043,1.074a5.7,5.7,0,0,0,.379,2.065,5.539,5.539,0,0,0,1.113,1.76,6.186,6.186,0,0,0,2.123,1.46,6.812,6.812,0,0,0,2.593.512,6.156,6.156,0,0,0,2.4-.48,5.816,5.816,0,0,0,1.98-1.381,5.675,5.675,0,0,0,1.214-1.976,5.774,5.774,0,0,0,.33-2.306,5.317,5.317,0,0,0-2.008-4.24"/>
    <path id="Path_107" data-name="Path 107" class="cls-1" d="M161.881,9.366h-3.144l2.547,1.852-.953,2.985,2.515-1.844,2.531,1.85-.965-2.993,2.541-1.85h-3.139l-.961-2.987Z"/>
    <path id="Path_108" data-name="Path 108" class="cls-1" d="M152.446,34.741l-6.313-15.914h-2.619l.677,1.721c.055.141,1.8,4.567,3.53,8.954l3.335,8.45-3.481,7.976h2.689l10.884-25.362.7-1.739h-2.7Z"/>
    <path id="Path_109" data-name="Path 109" class="cls-1" d="M128.518,23.4a8.647,8.647,0,0,1,2.574-1.685,8.153,8.153,0,0,1,3.026-.523,7.719,7.719,0,0,1,3.983,1.136,7.062,7.062,0,0,1,2.97,3.666l.2.561h2.6l-.4-1.128a9.55,9.55,0,0,0-4.151-5.127,10.56,10.56,0,0,0-5.333-1.468,10.027,10.027,0,0,0-7.191,2.911,10.161,10.161,0,0,0-2.894,7.239,10.355,10.355,0,0,0,2.611,6.91,10.54,10.54,0,0,0,13.346,1.43,9.581,9.581,0,0,0,3.576-4.677l.409-1.135h-2.618l-.193.573a6.742,6.742,0,0,1-2.371,3.11,8.014,8.014,0,0,1-7.61.957,7.5,7.5,0,0,1-2.454-1.59,7.362,7.362,0,0,1-1.692-2.512,8.173,8.173,0,0,1-.59-3.1,8.52,8.52,0,0,1,.613-3.151,6.525,6.525,0,0,1,1.586-2.4"/>
    <path id="Path_110" data-name="Path 110" class="cls-1" d="M119.1,18.827v3.321a9.4,9.4,0,0,0-1.8-1.579,10.252,10.252,0,0,0-5.768-1.741,9.677,9.677,0,0,0-7.5,3.232,10.457,10.457,0,0,0,0,13.767,9.68,9.68,0,0,0,7.5,3.233,10.071,10.071,0,0,0,5.316-1.414,9.322,9.322,0,0,0,2.252-1.927v3.338h2.415V18.827Zm.009,11.412a6.975,6.975,0,0,1-.37,1.392,7.581,7.581,0,0,1-2.73,3.709,7.955,7.955,0,0,1-10.148-1.05,8.167,8.167,0,0,1-2-5.347,7.8,7.8,0,0,1,2.191-5.543,7.619,7.619,0,0,1,5.479-2.212,7.829,7.829,0,0,1,4.354,1.29,7.305,7.305,0,0,1,2.773,3.452,6.9,6.9,0,0,1,.4,1.336,7.881,7.881,0,0,1,.138,1.505,7.424,7.424,0,0,1-.091,1.468"/>
    <path id="Path_111" data-name="Path 111" class="cls-1" d="M96.806,20.831a6.441,6.441,0,0,0-2.374-1.51,8.786,8.786,0,0,0-6.155.145,7.194,7.194,0,0,0-2.553,1.793,7.037,7.037,0,0,0-.733.959,5.157,5.157,0,0,0-.632-.929,6.509,6.509,0,0,0-2.519-1.839,8.448,8.448,0,0,0-3.275-.621,7.507,7.507,0,0,0-3.114.676A6.974,6.974,0,0,0,73.343,21V18.827H70.927v20.23h2.415V27.7a9.475,9.475,0,0,1,.367-2.825,5.486,5.486,0,0,1,1.126-2.026,4.174,4.174,0,0,1,1.6-1.232,4.573,4.573,0,0,1,2.1-.425,6.434,6.434,0,0,1,2.46.518,4.366,4.366,0,0,1,1.661,1.307,4.869,4.869,0,0,1,.824,1.6A9.489,9.489,0,0,1,83.8,27.33l-.007,11.727H86.2V27.864a13.072,13.072,0,0,1,.226-2.945,5.047,5.047,0,0,1,.994-1.965A4.26,4.26,0,0,1,89.287,21.6a6.4,6.4,0,0,1,4.28-.072,3.889,3.889,0,0,1,1.493.963,4.94,4.94,0,0,1,1.173,2.063,11.423,11.423,0,0,1,.419,3.311V39.057h2.413V27.864a13.864,13.864,0,0,0-.542-4.085,6.988,6.988,0,0,0-1.717-2.947"/>
    <path id="Path_112" data-name="Path 112" class="cls-2" d="M51.395,6.379l-4.029,12.45H34.244l10.63,7.739L40.848,39.021l10.531-7.706,10.594,7.742L57.925,26.547l10.583-7.718H55.428Z"/>
  </g>
</svg>
