<svg xmlns="http://www.w3.org/2000/svg" width="275" height="35" viewBox="0 0 275 35">
  <defs>
    <style>
      .cls-1 {
        fill: #fff;
      }

      .cls-2 {
        isolation: isolate;
      }
    </style>
  </defs>
  <g id="logo_1" transform="translate(-20.346 -194.233)">
    <g id="Group_5134" data-name="Group 5134">
      <path id="Path_24079" data-name="Path 24079" class="cls-1" d="M38.77,194.233,34.44,207.566H20.346l11.419,8.287-4.324,13.341,11.313-8.254,11.378,8.291-4.347-13.4,11.368-8.265H43.1Z"/>
    </g>
    <g id="Group_24" data-name="Group 24" class="cls-2">
      <path id="Path_362" data-name="Path 362" class="cls-1" d="M60.862,207.836h4.493v20.486H60.862Z"/>
      <path id="Path_363" data-name="Path 363" class="cls-1" d="M82.926,214.722a4.418,4.418,0,0,0-4.464-3.586c-4.035,0-5.552,3.443-5.552,7.03,0,3.415,1.517,6.857,5.552,6.857,2.747,0,4.293-1.893,4.636-4.59h4.35c-.458,5.107-3.978,8.378-8.986,8.378-6.325,0-10.045-4.734-10.045-10.645,0-6.083,3.72-10.817,10.045-10.817,4.493,0,8.27,2.639,8.814,7.374Z"/>
      <path id="Path_364" data-name="Path 364" class="cls-1" d="M99.67,207.348c6.324,0,10.044,4.734,10.044,10.817,0,5.911-3.72,10.645-10.044,10.645s-10.045-4.734-10.045-10.645C89.625,212.082,93.345,207.348,99.67,207.348Zm0,17.674c4.035,0,5.552-3.442,5.552-6.857,0-3.586-1.517-7.03-5.552-7.03s-5.552,3.443-5.552,7.03C94.118,221.58,95.635,225.022,99.67,225.022Z"/>
      <path id="Path_365" data-name="Path 365" class="cls-1" d="M112.779,207.836h4.464l8.528,13.744h.057V207.836h4.207v20.486h-4.493l-8.5-13.715h-.057v13.715h-4.207Z"/>
      <path id="Path_366" data-name="Path 366" class="cls-1" d="M137.049,221.523c0,2.726,2.117,3.787,4.522,3.787,1.574,0,3.978-.459,3.978-2.554,0-2.209-3.062-2.582-6.067-3.386-3.033-.8-6.1-1.979-6.1-5.825,0-4.19,3.95-6.2,7.641-6.2,4.264,0,8.184,1.865,8.184,6.6h-4.35c-.143-2.468-1.889-3.1-4.035-3.1-1.431,0-3.09.6-3.09,2.324,0,1.578.973,1.779,6.1,3.1,1.488.374,6.067,1.321,6.067,5.969,0,3.758-2.947,6.57-8.5,6.57-4.522,0-8.757-2.238-8.7-7.288Z"/>
      <path id="Path_367" data-name="Path 367" class="cls-1" d="M169.676,207.348c6.324,0,10.045,4.734,10.045,10.817,0,5.911-3.721,10.645-10.045,10.645s-10.045-4.734-10.045-10.645C159.631,212.082,163.351,207.348,169.676,207.348Zm0,17.674c4.035,0,5.551-3.442,5.551-6.857,0-3.586-1.516-7.03-5.551-7.03s-5.552,3.443-5.552,7.03C164.124,221.58,165.641,225.022,169.676,225.022Z"/>
      <path id="Path_368" data-name="Path 368" class="cls-1" d="M182.784,207.836H197.15v3.787h-9.872v4.734h8.556v3.5h-8.556v8.464h-4.493Z"/>
      <path id="Path_369" data-name="Path 369" class="cls-1" d="M210.774,221.523c0,2.726,2.118,3.787,4.522,3.787,1.575,0,3.978-.459,3.978-2.554,0-2.209-3.062-2.582-6.067-3.386-3.033-.8-6.1-1.979-6.1-5.825,0-4.19,3.95-6.2,7.641-6.2,4.264,0,8.184,1.865,8.184,6.6h-4.35c-.143-2.468-1.889-3.1-4.034-3.1-1.432,0-3.091.6-3.091,2.324,0,1.578.973,1.779,6.1,3.1,1.488.374,6.067,1.321,6.067,5.969,0,3.758-2.948,6.57-8.5,6.57-4.522,0-8.757-2.238-8.7-7.288Z"/>
      <path id="Path_370" data-name="Path 370" class="cls-1" d="M230.808,211.623h-6.124v-3.787h16.741v3.787H235.3v16.7h-4.493Z"/>
      <path id="Path_371" data-name="Path 371" class="cls-1" d="M249.068,220.346l-7.526-12.51h5.065l4.779,8.092,4.75-8.092h5.009l-7.584,12.625v7.862h-4.493Z"/>
      <path id="Path_372" data-name="Path 372" class="cls-1" d="M262.863,207.836h4.493v16.7h9.958v3.787H262.863Z"/>
      <path id="Path_373" data-name="Path 373" class="cls-1" d="M279.836,207.836h15.282v3.787H284.328v4.39h9.9v3.5h-9.9v5.021h11.018v3.787H279.836Z"/>
    </g>
  </g>
</svg>
