<svg xmlns="http://www.w3.org/2000/svg" width="200.211" height="55.915" viewBox="0 0 200.211 55.915">
  <defs>
    <style>
      .cls-1 {
        fill: #fff;
      }

      .cls-2 {
        fill: #d70020;
      }
    </style>
  </defs>
  <g id="Macy_s_Logo_White" data-name="Macy&apos;s Logo White" transform="translate(-48.972 -9.018)">
    <path id="Path_134" data-name="Path 134" class="cls-1" d="M246.3,40.544a14.491,14.491,0,0,0-5.122-2.108l-.2-.051a9.639,9.639,0,0,1-3.655-1.6,3.4,3.4,0,0,1-1.135-2.641,4.1,4.1,0,0,1,.23-1.578,3.675,3.675,0,0,1,.8-1.289,4.064,4.064,0,0,1,1.475-.97,5.548,5.548,0,0,1,2.028-.355,4.829,4.829,0,0,1,1.8.28,3.7,3.7,0,0,1,1.339.82,3.566,3.566,0,0,1,.817,1.268,5.168,5.168,0,0,1,.319,1.793l.021,1.179h3.45l-.016-1.218a7.434,7.434,0,0,0-2.2-5.379,7.983,7.983,0,0,0-5.562-2.083,8.474,8.474,0,0,0-5.4,1.816,7.23,7.23,0,0,0-2.55,5.8,6.447,6.447,0,0,0,2.43,5.244,15.277,15.277,0,0,0,5.255,2.277,8.231,8.231,0,0,1,4.121,1.838,4.422,4.422,0,0,1,1.174,3.213l0,.17a5.106,5.106,0,0,1-.354,1.9,4.647,4.647,0,0,1-2.617,2.627,5.546,5.546,0,0,1-2.059.38,5.467,5.467,0,0,1-3.9-1.42,5.263,5.263,0,0,1-1.5-3.794l-.02-1.182-3.392.019-.062,1.518a7.978,7.978,0,0,0,.542,2.919,7.82,7.82,0,0,0,1.592,2.489,8.85,8.85,0,0,0,3.036,2.064,9.84,9.84,0,0,0,3.708.724,8.892,8.892,0,0,0,3.437-.679,8.319,8.319,0,0,0,2.831-1.952,8.046,8.046,0,0,0,2.208-6.055,7.486,7.486,0,0,0-2.871-5.994"/>
    <path id="Path_135" data-name="Path 135" class="cls-1" d="M231.5,13.241h-4.5l3.643,2.619-1.363,4.22,3.6-2.607,3.619,2.616-1.379-4.232,3.633-2.616h-4.489l-1.375-4.223Z"/>
    <path id="Path_136" data-name="Path 136" class="cls-1" d="M218.01,49.116l-9.028-22.5h-3.745l.968,2.434c.079.2,2.572,6.456,5.048,12.659l4.77,11.947-4.978,11.276h3.846l15.565-35.856,1-2.458h-3.862Z"/>
    <path id="Path_137" data-name="Path 137" class="cls-1" d="M183.791,33.075a12.382,12.382,0,0,1,3.681-2.382,11.779,11.779,0,0,1,4.328-.739,11.133,11.133,0,0,1,5.7,1.605,10.008,10.008,0,0,1,4.247,5.183l.285.793h3.714l-.566-1.594a13.534,13.534,0,0,0-5.936-7.249,15.234,15.234,0,0,0-7.627-2.075,14.425,14.425,0,0,0-10.284,4.116,14.279,14.279,0,0,0-4.138,10.234,14.544,14.544,0,0,0,3.733,9.77,15.205,15.205,0,0,0,19.086,2.022,13.566,13.566,0,0,0,5.114-6.612l.585-1.605h-3.744l-.276.81a9.544,9.544,0,0,1-3.39,4.4A11.574,11.574,0,0,1,187.419,51.1a10.744,10.744,0,0,1-3.509-2.248,10.4,10.4,0,0,1-2.419-3.552,11.439,11.439,0,0,1-.843-4.381,11.925,11.925,0,0,1,.876-4.455,9.219,9.219,0,0,1,2.268-3.389"/>
    <path id="Path_138" data-name="Path 138" class="cls-1" d="M170.326,26.617v4.694a13.4,13.4,0,0,0-2.573-2.233,14.782,14.782,0,0,0-8.249-2.461,13.907,13.907,0,0,0-10.72,4.569,14.657,14.657,0,0,0,0,19.464A13.911,13.911,0,0,0,159.5,55.222a14.53,14.53,0,0,0,7.6-2,13.292,13.292,0,0,0,3.22-2.724v4.72h3.454v-28.6Zm.013,16.134a9.772,9.772,0,0,1-.529,1.968,11.131,11.131,0,0,1-18.416,3.76,11.47,11.47,0,0,1-2.859-7.559A10.7,10.7,0,0,1,159.5,29.956a11.289,11.289,0,0,1,6.227,1.824,10.351,10.351,0,0,1,3.966,4.88,9.671,9.671,0,0,1,.575,1.889,11.019,11.019,0,0,1,.2,2.128,10.378,10.378,0,0,1-.131,2.075"/>
    <path id="Path_139" data-name="Path 139" class="cls-1" d="M138.44,29.45a9.225,9.225,0,0,0-3.395-2.135,12.7,12.7,0,0,0-8.8.2,10.288,10.288,0,0,0-3.65,2.535,9.961,9.961,0,0,0-1.048,1.356,7.289,7.289,0,0,0-.9-1.314,9.3,9.3,0,0,0-3.6-2.6,12.2,12.2,0,0,0-4.683-.878,10.842,10.842,0,0,0-4.454.956,9.972,9.972,0,0,0-3.016,2.119V26.617h-3.454v28.6h3.454V39.156a13.253,13.253,0,0,1,.525-3.993,7.732,7.732,0,0,1,1.61-2.864,5.961,5.961,0,0,1,2.293-1.742,6.6,6.6,0,0,1,3.008-.6,9.291,9.291,0,0,1,3.518.733,6.233,6.233,0,0,1,2.376,1.848,6.855,6.855,0,0,1,1.178,2.265,13.27,13.27,0,0,1,.441,3.837l-.01,16.579h3.453V39.393a18.275,18.275,0,0,1,.324-4.164,7.1,7.1,0,0,1,1.422-2.778,6.089,6.089,0,0,1,2.664-1.915,9.246,9.246,0,0,1,6.121-.1,5.569,5.569,0,0,1,2.135,1.362,6.966,6.966,0,0,1,1.677,2.917,15.977,15.977,0,0,1,.6,4.682V55.218h3.451V39.393a19.391,19.391,0,0,0-.776-5.776,9.856,9.856,0,0,0-2.455-4.167"/>
    <path id="Path_140" data-name="Path 140" class="cls-2" d="M73.5,9.018l-5.762,17.6H48.972l15.2,10.941L58.415,55.167l15.06-10.894,15.15,10.945L82.837,37.531,97.972,26.62H79.267Z"/>
  </g>
</svg>
