<svg xmlns="http://www.w3.org/2000/svg" width="120" height="33.9" viewBox="0 0 120 33.9">
  <defs>
    <style>
      .cls-1 {
        fill: #fff;
      }

      .cls-2 {
        fill: #d6001e;
      }
    </style>
  </defs>
  <g id="Macy_s_Logo_White" data-name="Macy&apos;s Logo White" transform="translate(-29.352 -5.467)">
    <path id="Path_162" data-name="Path 162" class="cls-1" d="M147.623,24.581a8.631,8.631,0,0,0-3.07-1.278l-.119-.031a5.746,5.746,0,0,1-2.191-.968,2.07,2.07,0,0,1-.68-1.6,2.509,2.509,0,0,1,.138-.956,2.232,2.232,0,0,1,.48-.782,2.434,2.434,0,0,1,.884-.588,3.291,3.291,0,0,1,1.216-.215,2.864,2.864,0,0,1,1.077.17,2.216,2.216,0,0,1,.8.5,2.165,2.165,0,0,1,.49.769,3.165,3.165,0,0,1,.191,1.087l.012.715h2.068l-.009-.738A4.533,4.533,0,0,0,147.6,17.4a4.754,4.754,0,0,0-3.334-1.263,5.042,5.042,0,0,0-3.237,1.1,4.406,4.406,0,0,0-1.528,3.518,3.926,3.926,0,0,0,1.456,3.179,9.1,9.1,0,0,0,3.149,1.38,4.908,4.908,0,0,1,2.47,1.114,2.7,2.7,0,0,1,.7,1.948l0,.1a3.127,3.127,0,0,1-.212,1.154,2.869,2.869,0,0,1-.6.944,2.813,2.813,0,0,1-.965.648,3.291,3.291,0,0,1-1.234.23,3.255,3.255,0,0,1-2.339-.861,3.21,3.21,0,0,1-.9-2.3l-.012-.717-2.033.011-.037.921a4.886,4.886,0,0,0,.325,1.77,4.748,4.748,0,0,0,.954,1.509,5.3,5.3,0,0,0,1.82,1.252,5.839,5.839,0,0,0,2.223.439,5.277,5.277,0,0,0,2.06-.412,4.985,4.985,0,0,0,1.7-1.184,4.864,4.864,0,0,0,1.04-1.694,4.949,4.949,0,0,0,.283-1.977,4.558,4.558,0,0,0-1.721-3.634"/>
    <path id="Path_163" data-name="Path 163" class="cls-1" d="M138.756,8.028h-2.7l2.183,1.588-.817,2.559,2.156-1.58,2.169,1.586-.827-2.566L143.1,8.028h-2.69l-.824-2.56Z"/>
    <path id="Path_164" data-name="Path 164" class="cls-1" d="M130.668,29.778l-5.411-13.64h-2.245l.58,1.475c.047.121,1.541,3.914,3.026,7.675l2.859,7.243-2.984,6.836h2.3l9.329-21.739.6-1.49h-2.315Z"/>
    <path id="Path_165" data-name="Path 165" class="cls-1" d="M110.159,20.053a7.412,7.412,0,0,1,2.206-1.444,6.988,6.988,0,0,1,2.594-.448,6.616,6.616,0,0,1,3.414.973,6.053,6.053,0,0,1,2.546,3.142l.171.481h2.226l-.339-.967A8.186,8.186,0,0,0,119.42,17.4a9.051,9.051,0,0,0-4.571-1.258,8.594,8.594,0,0,0-6.164,2.5,8.709,8.709,0,0,0-2.48,6.2,8.876,8.876,0,0,0,2.238,5.923,9.035,9.035,0,0,0,11.439,1.226,8.212,8.212,0,0,0,3.065-4.009L123.3,27h-2.244l-.165.491a5.779,5.779,0,0,1-2.032,2.665,6.869,6.869,0,0,1-6.523.82,6.431,6.431,0,0,1-2.1-1.363,6.311,6.311,0,0,1-1.45-2.154,7.005,7.005,0,0,1-.506-2.656,7.3,7.3,0,0,1,.525-2.7,5.593,5.593,0,0,1,1.359-2.055"/>
    <path id="Path_166" data-name="Path 166" class="cls-1" d="M102.088,16.138v2.846a8.057,8.057,0,0,0-1.542-1.354A8.788,8.788,0,0,0,95.6,16.138a8.3,8.3,0,0,0-6.425,2.77,8.963,8.963,0,0,0,0,11.8A8.3,8.3,0,0,0,95.6,33.48a8.632,8.632,0,0,0,4.556-1.212,7.99,7.99,0,0,0,1.93-1.651v2.861h2.07V16.138Zm.007,9.782a5.979,5.979,0,0,1-.317,1.193,6.5,6.5,0,0,1-2.34,3.18,6.819,6.819,0,0,1-8.7-.9,7,7,0,0,1-1.714-4.583,6.683,6.683,0,0,1,1.878-4.752,6.531,6.531,0,0,1,4.7-1.9,6.71,6.71,0,0,1,3.732,1.106,6.262,6.262,0,0,1,2.377,2.959,5.914,5.914,0,0,1,.345,1.145,6.755,6.755,0,0,1,.119,1.29,6.363,6.363,0,0,1-.078,1.258"/>
    <path id="Path_167" data-name="Path 167" class="cls-1" d="M82.976,17.855a5.521,5.521,0,0,0-2.035-1.295,7.531,7.531,0,0,0-5.276.124,6.166,6.166,0,0,0-2.188,1.537,6.031,6.031,0,0,0-.628.822,4.421,4.421,0,0,0-.542-.8,5.579,5.579,0,0,0-2.159-1.577,7.241,7.241,0,0,0-2.807-.533,6.435,6.435,0,0,0-2.669.579A5.978,5.978,0,0,0,62.865,18V16.138h-2.07v17.34h2.07V23.739a8.122,8.122,0,0,1,.315-2.421,4.7,4.7,0,0,1,.965-1.736,3.578,3.578,0,0,1,1.374-1.056,3.92,3.92,0,0,1,1.8-.364,5.515,5.515,0,0,1,2.108.444,3.742,3.742,0,0,1,1.424,1.12,4.173,4.173,0,0,1,.706,1.373,8.133,8.133,0,0,1,.265,2.326l-.006,10.052h2.069V23.883a11.2,11.2,0,0,1,.194-2.525,4.326,4.326,0,0,1,.852-1.685,3.651,3.651,0,0,1,1.6-1.161,5.482,5.482,0,0,1,3.669-.062,3.334,3.334,0,0,1,1.28.826,4.235,4.235,0,0,1,1.005,1.768,9.791,9.791,0,0,1,.359,2.838v9.594h2.068V23.883a11.883,11.883,0,0,0-.465-3.5,5.99,5.99,0,0,0-1.472-2.526"/>
    <path id="Path_168" data-name="Path 168" class="cls-2" d="M44.053,5.467,40.6,16.139H29.352l9.112,6.633L35.012,33.447l9.027-6.6,9.08,6.636L49.65,22.754l9.071-6.615H47.51Z"/>
  </g>
</svg>
