<svg xmlns="http://www.w3.org/2000/svg" width="132" height="58" viewBox="0 0 132 58">
  <defs>
    <style>
      .cls-1 {
        fill: #fff;
      }

      .cls-2 {
        isolation: isolate;
      }
    </style>
  </defs>
  <g id="logo_1" transform="translate(-18.858 -179.29)">
    <g id="Group_5134" data-name="Group 5134">
      <path id="Path_24079" data-name="Path 24079" class="cls-1" d="M35.934,179.29,31.921,191.6H18.858l10.583,7.65-4.008,12.315,10.486-7.619L46.465,211.6l-4.029-12.369,10.537-7.63H39.949Z"/>
    </g>
    <g id="Group_19" data-name="Group 19" class="cls-2">
      <path id="Path_286" data-name="Path 286" class="cls-1" d="M56.41,191.847h4.164v18.91H56.41Z"/>
      <path id="Path_287" data-name="Path 287" class="cls-1" d="M76.861,198.2a4.091,4.091,0,0,0-4.138-3.311c-3.74,0-5.146,3.179-5.146,6.489,0,3.152,1.406,6.33,5.146,6.33,2.546,0,3.979-1.748,4.3-4.237h4.032c-.424,4.714-3.687,7.734-8.329,7.734-5.862,0-9.31-4.37-9.31-9.826,0-5.615,3.448-9.985,9.31-9.985,4.164,0,7.665,2.436,8.169,6.806Z"/>
      <path id="Path_288" data-name="Path 288" class="cls-1" d="M92.38,191.4c5.862,0,9.31,4.37,9.31,9.985,0,5.456-3.448,9.826-9.31,9.826s-9.31-4.37-9.31-9.826C83.07,195.767,86.518,191.4,92.38,191.4Zm0,16.315c3.74,0,5.146-3.178,5.146-6.33,0-3.311-1.406-6.489-5.146-6.489s-5.146,3.179-5.146,6.489C87.234,204.534,88.64,207.711,92.38,207.711Z"/>
      <path id="Path_289" data-name="Path 289" class="cls-1" d="M104.531,191.847h4.138l7.9,12.687h.053V191.847h3.9v18.91H116.36l-7.878-12.66h-.053v12.66h-3.9Z"/>
      <path id="Path_290" data-name="Path 290" class="cls-1" d="M127.025,204.481c0,2.516,1.963,3.5,4.191,3.5,1.459,0,3.687-.424,3.687-2.357,0-2.039-2.838-2.383-5.623-3.125-2.811-.741-5.65-1.827-5.65-5.377,0-3.867,3.661-5.721,7.082-5.721,3.952,0,7.586,1.722,7.586,6.092h-4.032c-.133-2.278-1.751-2.861-3.74-2.861-1.326,0-2.864.556-2.864,2.146,0,1.456.9,1.642,5.649,2.86,1.379.345,5.623,1.219,5.623,5.51,0,3.469-2.732,6.065-7.878,6.065-4.191,0-8.116-2.066-8.063-6.727Z"/>
    </g>
    <g id="Group_20" data-name="Group 20">
      <path id="Path_291" data-name="Path 291" class="cls-1" d="M34.379,217.479c5.861,0,9.31,4.37,9.31,9.985,0,5.456-3.449,9.826-9.31,9.826s-9.311-4.37-9.311-9.826C25.068,221.849,28.517,217.479,34.379,217.479Zm0,16.315c3.739,0,5.145-3.179,5.145-6.33,0-3.311-1.406-6.489-5.145-6.489s-5.146,3.179-5.146,6.489C29.233,230.616,30.639,233.794,34.379,233.794Z"/>
      <path id="Path_292" data-name="Path 292" class="cls-1" d="M46.529,217.93H59.844v3.5h-9.15v4.37h7.931v3.232H50.693v7.813H46.529Z"/>
      <path id="Path_293" data-name="Path 293" class="cls-1" d="M72.472,230.563c0,2.516,1.963,3.5,4.19,3.5,1.459,0,3.687-.424,3.687-2.357,0-2.04-2.838-2.383-5.623-3.126-2.811-.741-5.649-1.827-5.649-5.376,0-3.867,3.66-5.721,7.081-5.721,3.953,0,7.586,1.722,7.586,6.092H79.713c-.133-2.278-1.751-2.861-3.74-2.861-1.326,0-2.865.556-2.865,2.146,0,1.457.9,1.642,5.65,2.861,1.379.344,5.623,1.218,5.623,5.509,0,3.47-2.732,6.065-7.878,6.065-4.191,0-8.116-2.066-8.064-6.727Z"/>
      <path id="Path_294" data-name="Path 294" class="cls-1" d="M91.041,221.426H85.364v-3.5h15.517v3.5H95.205V236.84H91.041Z"/>
      <path id="Path_295" data-name="Path 295" class="cls-1" d="M107.965,229.477l-6.976-11.547h4.694l4.43,7.469,4.4-7.469h4.641l-7.029,11.653v7.257h-4.164Z"/>
      <path id="Path_296" data-name="Path 296" class="cls-1" d="M120.751,217.93h4.164v15.414h9.23v3.5H120.751Z"/>
      <path id="Path_297" data-name="Path 297" class="cls-1" d="M136.482,217.93h14.164v3.5h-10v4.052h9.177v3.232h-9.177v4.634h10.212v3.5H136.482Z"/>
    </g>
  </g>
</svg>
